<svg width="100%" height="100%" viewBox="0 0 27 27" fill="none" xmlns="http://www.w3.org/2000/svg">
<path fill-rule="evenodd" clip-rule="evenodd" d="M13.5006 13.4997C10.5077 13.4997 8.07509 11.0779 8.07509 8.09982C8.07509 5.12178 10.5077 2.69993 13.5006 2.69993C16.4935 2.69993 18.9262 5.12178 18.9262 8.09982C18.9262 11.0779 16.4935 13.4997 13.5006 13.4997ZM18.5981 14.4082C19.7135 13.52 20.5737 12.3522 21.0912 11.0236C21.6086 9.69491 21.7647 8.25288 21.5438 6.84427C21.0078 3.30329 18.0487 0.469759 14.4753 0.0566676C9.5452 -0.514371 5.36299 3.30606 5.36299 8.09982C5.36299 10.6513 6.55096 12.9246 8.40312 14.4082C3.85102 16.1105 0.52738 20.1078 0.00629031 25.5023C-0.011929 25.6915 0.00953567 25.8825 0.0693025 26.0629C0.129069 26.2434 0.225829 26.4093 0.353393 26.5502C0.480957 26.6911 0.636518 26.8038 0.810134 26.8811C0.983749 26.9585 1.1716 26.9988 1.36167 26.9994C1.69484 27.0021 2.01698 26.8803 2.26497 26.6578C2.51295 26.4353 2.66888 26.1281 2.70219 25.7966C3.24623 19.7717 7.88069 16.1997 13.5006 16.1997C19.1206 16.1997 23.755 19.7717 24.299 25.7966C24.3324 26.1281 24.4883 26.4353 24.7363 26.6578C24.9843 26.8803 25.3064 27.0021 25.6396 26.9994C26.4442 26.9994 27.0705 26.3001 26.9936 25.5023C26.4739 20.1078 23.1502 16.1105 18.5968 14.4082" fill="#6F42FF"/>
</svg>
