<svg width="100%" height="100%" viewBox="0 0 22 23" fill="none" xmlns="http://www.w3.org/2000/svg">
<path d="M8.11928 12.261C8.11928 11.9826 7.89346 11.7571 7.61484 11.7571H5.85451C5.5762 11.7571 5.35034 11.9826 5.35034 12.261V14.0211C5.35034 14.2999 5.5762 14.5255 5.85451 14.5255H7.61484C7.89346 14.5255 8.11928 14.2999 8.11928 14.0211V12.261Z" fill="#505050"/>
<path d="M12.5184 12.261C12.5184 11.9826 12.2926 11.7571 12.0145 11.7571H10.2539C9.97562 11.7571 9.74976 11.9826 9.74976 12.261V14.0211C9.74976 14.2999 9.97562 14.5255 10.2539 14.5255H12.0145C12.2926 14.5255 12.5184 14.2999 12.5184 14.0211V12.261Z" fill="#505050"/>
<path d="M16.9181 12.261C16.9181 11.9826 16.6922 11.7571 16.4139 11.7571H14.6536C14.375 11.7571 14.1492 11.9826 14.1492 12.261V14.0211C14.1492 14.2999 14.375 14.5255 14.6536 14.5255H16.4139C16.6922 14.5255 16.9181 14.2999 16.9181 14.0211V12.261Z" fill="#505050"/>
<path d="M8.11928 16.6608C8.11928 16.382 7.89346 16.1566 7.61484 16.1566H5.85451C5.5762 16.1566 5.35034 16.382 5.35034 16.6608V18.4206C5.35034 18.6992 5.5762 18.9248 5.85451 18.9248H7.61484C7.89346 18.9248 8.11928 18.6991 8.11928 18.4206V16.6608Z" fill="#505050"/>
<path d="M12.5184 16.6608C12.5184 16.382 12.2926 16.1566 12.0145 16.1566H10.2539C9.97562 16.1566 9.74976 16.382 9.74976 16.6608V18.4206C9.74976 18.6992 9.97562 18.9248 10.2539 18.9248H12.0145C12.2926 18.9248 12.5184 18.6991 12.5184 18.4206V16.6608Z" fill="#505050"/>
<path d="M16.9181 16.6608C16.9181 16.382 16.6922 16.1566 16.4142 16.1566H14.6536C14.375 16.1566 14.1492 16.382 14.1492 16.6608V18.4206C14.1492 18.6992 14.375 18.9248 14.6536 18.9248H16.4142C16.6922 18.9248 16.9181 18.6991 16.9181 18.4206V16.6608Z" fill="#505050"/>
<path d="M20.0656 2.47462V5.16302C20.0656 6.37815 19.0799 7.35736 17.8649 7.35736H16.4767C15.2616 7.35736 14.2628 6.37815 14.2628 5.16302V2.46497H8.00549V5.16302C8.00549 6.37815 7.0067 7.35736 5.79185 7.35736H4.4033C3.1884 7.35736 2.20268 6.37815 2.20268 5.16302V2.47462C1.14085 2.50662 0.268311 3.38526 0.268311 4.46522V20.2205C0.268311 21.3208 1.1601 22.2244 2.26037 22.2244H20.0079C21.1065 22.2244 22 21.3189 22 20.2205V4.46522C22 3.38526 21.1275 2.50662 20.0656 2.47462ZM19.4208 19.2394C19.4208 19.7149 19.0353 20.1007 18.5596 20.1007H3.67072C3.19505 20.1007 2.80952 19.7149 2.80952 19.2394V11.1012C2.80952 10.6256 3.195 10.2398 3.67072 10.2398H18.5596C19.0353 10.2398 19.4208 10.6256 19.4208 11.1012L19.4208 19.2394Z" fill="#505050"/>
<path d="M4.39831 5.91608H5.77151C6.18832 5.91608 6.52627 5.57863 6.52627 5.16182V0.754528C6.52627 0.337678 6.18832 0 5.77151 0H4.39831C3.98146 0 3.64355 0.337678 3.64355 0.754528V5.16182C3.64355 5.57863 3.98146 5.91608 4.39831 5.91608Z" fill="#505050"/>
<path d="M16.4591 5.91608H17.8323C18.2488 5.91608 18.5867 5.57863 18.5867 5.16182V0.754528C18.5868 0.337678 18.2488 0 17.8323 0H16.4591C16.0423 0 15.7043 0.337678 15.7043 0.754528V5.16182C15.7043 5.57863 16.0423 5.91608 16.4591 5.91608Z" fill="#505050"/>
</svg>
