<svg width="18" height="18" viewBox="0 0 18 18" fill="none" xmlns="http://www.w3.org/2000/svg">
<path d="M15.364 2.63603C13.6641 0.936172 11.4039 0 9 0C6.59605 0 4.33589 0.936172 2.63603 2.63603C0.936172 4.33589 0 6.59605 0 9C0 11.4039 0.936172 13.6641 2.63603 15.364C4.33589 17.0638 6.59605 18 9 18C11.4039 18 13.6641 17.0638 15.364 15.364C17.0638 13.6641 18 11.4039 18 9C18 6.59605 17.0638 4.33589 15.364 2.63603ZM9 16.5938C4.81284 16.5938 1.40625 13.1872 1.40625 9C1.40625 4.81284 4.81284 1.40625 9 1.40625C13.1872 1.40625 16.5938 4.81284 16.5938 9C16.5938 13.1872 13.1872 16.5938 9 16.5938ZM9.70312 8.29619H12.8672V9.70244H9.70312V12.8665H8.29688V9.70244H5.13281V8.29619H8.29688V5.13213H9.70312V8.29619Z" fill="black"/>
</svg>
