<svg width="100%" height="100%" viewBox="0 0 26 32" fill="none" xmlns="http://www.w3.org/2000/svg">
<path d="M8.43446 11.5518C8.84177 11.5518 9.17188 11.8819 9.17188 12.2892V26.2263C9.17188 26.6333 8.84177 26.9637 8.43446 26.9637C8.02716 26.9637 7.69705 26.6333 7.69705 26.2263V12.2892C7.69705 11.8819 8.02716 11.5518 8.43446 11.5518Z" fill="#6F42FF"/>
<path d="M17.1386 11.5518C17.5459 11.5518 17.876 11.8819 17.876 12.2892V26.2263C17.876 26.6333 17.5459 26.9637 17.1386 26.9637C16.7313 26.9637 16.4012 26.6333 16.4012 26.2263V12.2892C16.4012 11.8819 16.7313 11.5518 17.1386 11.5518Z" fill="#6F42FF"/>
<path d="M23.4789 9.51793V27.6862C23.4789 28.76 23.0851 29.7685 22.3972 30.4921C21.7125 31.2177 20.7597 31.6296 19.7624 31.6313H5.81042C4.81289 31.6296 3.86002 31.2177 3.17561 30.4921C2.48775 29.7685 2.09398 28.76 2.09398 27.6862V9.51793C0.726606 9.15499 -0.159439 7.83399 0.0234737 6.43089C0.206675 5.02809 1.4018 3.97872 2.8167 3.97843H6.59218V3.05667C6.58786 2.28152 6.89435 1.5372 7.44309 0.989613C7.99183 0.442316 8.7373 0.137559 9.51245 0.143896H16.0604C16.8356 0.137559 17.581 0.442316 18.1298 0.989613C18.6785 1.5372 18.985 2.28152 18.9807 3.05667V3.97843H22.7562C24.1711 3.97872 25.3662 5.02809 25.5494 6.43089C25.7323 7.83399 24.8463 9.15499 23.4789 9.51793ZM5.81042 30.1565H19.7624C21.0232 30.1565 22.0041 29.0734 22.0041 27.6862V9.58274H3.5688V27.6862C3.5688 29.0734 4.54962 30.1565 5.81042 30.1565ZM17.5059 3.05667C17.5108 2.67269 17.3598 2.30312 17.0873 2.03207C16.8151 1.76101 16.4447 1.61209 16.0604 1.61872H9.51245C9.12819 1.61209 8.75775 1.76101 8.48554 2.03207C8.21305 2.30284 8.06211 2.67269 8.06701 3.05667V3.97843H17.5059V3.05667ZM22.7562 5.45325H2.8167C2.08361 5.45325 1.48936 6.0475 1.48936 6.78059C1.48936 7.51368 2.08361 8.10792 2.8167 8.10792H22.7562C23.4892 8.10792 24.0835 7.51368 24.0835 6.78059C24.0835 6.0475 23.4892 5.45325 22.7562 5.45325Z" fill="#6F42FF"/>
<path d="M12.787 11.5518C13.1943 11.5518 13.5244 11.8819 13.5244 12.2892V26.2263C13.5244 26.6333 13.1943 26.9637 12.787 26.9637C12.3797 26.9637 12.0496 26.6333 12.0496 26.2263V12.2892C12.0496 11.8819 12.3797 11.5518 12.787 11.5518Z" fill="#6F42FF"/>
</svg>
