<svg width="100%" height="100%" viewBox="0 0 27 23" fill="none" xmlns="http://www.w3.org/2000/svg">
<path d="M19.212 7.0471C19.5392 7.15839 19.8872 7.21939 20.2498 7.21939C22.0504 7.21939 23.5097 5.76005 23.5097 3.95987C23.5097 2.15938 22.0505 0.700117 20.25 0.7L19.212 7.0471ZM19.212 7.0471C18.9508 5.61508 18.1427 4.3769 17.0189 3.54768C17.2219 1.94231 18.5905 0.700625 20.2498 0.7L19.212 7.0471ZM9.13165 11.2937C6.8706 12.3746 5.30381 14.6825 5.30315 17.3539V17.3541V17.8395C3.93074 17.7098 2.39281 17.4286 0.7 16.9146V13.2594C0.7 10.8507 2.661 8.88963 5.07012 8.88963H8.1616C8.29433 9.77534 8.63439 10.594 9.13165 11.2937ZM22.0931 17.3541C22.0931 14.6827 20.526 12.3743 18.2655 11.2937C18.7629 10.5941 19.1034 9.7757 19.236 8.88963H21.9302C24.339 8.88963 26.3 10.8507 26.3 13.2594V16.9225C25.9263 17.0925 24.4602 17.6954 22.0931 17.8794V17.3541ZM19.748 17.3477V17.348V21.0103C19.3132 21.2088 17.336 22.0217 14.1358 22.0217C12.344 22.0217 10.1639 21.7674 7.64863 21.0029V17.348C7.64863 14.9388 9.60972 12.9775 12.0188 12.9775H15.3788C17.7879 12.9775 19.7488 14.9388 19.748 17.3477ZM16.959 8.04777C16.959 9.84803 15.4997 11.3076 13.6991 11.3076C11.8987 11.3076 10.4386 9.8481 10.4386 8.04811C10.4386 6.24804 11.8988 4.78824 13.6991 4.78824C15.4994 4.78824 16.959 6.24763 16.959 8.04777ZM8.22788 6.86257C7.78333 7.09072 7.28246 7.22007 6.75084 7.22007C4.94995 7.22007 3.49098 5.76042 3.49098 3.96088C3.49098 2.16028 4.94999 0.701011 6.75084 0.701011C8.5121 0.701011 9.94783 2.0989 10.0081 3.84653C9.12486 4.6223 8.487 5.67099 8.22788 6.86257Z" stroke="#A2A2AC" stroke-width="1.4"/>
</svg>
