<svg width="100%" height="100%" viewBox="0 0 27 26" fill="none" xmlns="http://www.w3.org/2000/svg">
<path fill-rule="evenodd" clip-rule="evenodd" d="M24.3 21.8687C24.3 22.5771 23.634 23.1429 22.8896 23.1429H18.8396C18.6704 23.1468 18.5022 23.1167 18.345 23.0543C18.1877 22.9919 18.0447 22.8984 17.9243 22.7795C17.804 22.6606 17.7088 22.5187 17.6445 22.3622C17.5802 22.2057 17.5481 22.0379 17.55 21.8687V18.0116C17.5474 17.8411 17.579 17.6719 17.6428 17.5139C17.7066 17.3558 17.8013 17.2121 17.9215 17.0912C18.0416 16.9704 18.1848 16.8747 18.3424 16.81C18.5001 16.7453 18.6691 16.7127 18.8396 16.7143H22.8896C23.6353 16.7143 24.3 17.3031 24.3 18.0116V21.8687ZM22.8896 14.1429H18.8396C16.6024 14.1429 14.85 15.8811 14.85 18.0116V21.8687C14.85 23.9991 16.6024 25.7143 18.8396 25.7143H22.8896C25.1267 25.7143 27 23.9991 27 21.8687V18.0116C27 15.8811 25.1267 14.1429 22.8896 14.1429ZM9.45 21.8687C9.45 22.5771 8.784 23.1429 8.03957 23.1429H3.98957C3.82043 23.1468 3.65223 23.1167 3.49499 23.0543C3.33774 22.9919 3.19468 22.8984 3.07434 22.7795C2.95399 22.6606 2.85882 22.5187 2.79451 22.3622C2.7302 22.2057 2.69805 22.0379 2.7 21.8687V18.0116C2.69742 17.8411 2.72896 17.6719 2.79275 17.5139C2.85655 17.3558 2.95132 17.2121 3.07148 17.0912C3.19164 16.9704 3.33477 16.8747 3.49244 16.81C3.65011 16.7453 3.81913 16.7127 3.98957 16.7143H8.03957C8.78528 16.7143 9.45 17.3031 9.45 18.0116V21.8687ZM8.03957 14.1429H3.98957C1.75242 14.1429 0 15.8811 0 18.0116V21.8687C0 23.9991 1.75242 25.7143 3.98957 25.7143H8.03957C10.2767 25.7143 12.15 23.9991 12.15 21.8687V18.0116C12.15 15.8811 10.2767 14.1429 8.03957 14.1429ZM24.3 7.72586C24.3 8.43428 23.634 9 22.8896 9H18.8396C18.6704 9.00398 18.5022 8.97386 18.345 8.91144C18.1877 8.84901 18.0447 8.75555 17.9243 8.63665C17.804 8.51774 17.7088 8.37582 17.6445 8.21934C17.5802 8.06286 17.5481 7.89503 17.55 7.72586V3.86871C17.5474 3.69829 17.579 3.52907 17.6428 3.37102C17.7066 3.21296 17.8013 3.06927 17.9215 2.94839C18.0416 2.82751 18.1848 2.73189 18.3424 2.66715C18.5001 2.60241 18.6691 2.56987 18.8396 2.57143H22.8896C23.6353 2.57143 24.3 3.16028 24.3 3.86871V7.72586ZM22.8896 0H18.8396C16.6024 0 14.85 1.73828 14.85 3.86871V7.72586C14.85 9.85628 16.6024 11.5714 18.8396 11.5714H22.8896C25.1267 11.5714 27 9.85628 27 7.72586V3.86871C27 1.73828 25.1267 0 22.8896 0ZM9.45 7.72586C9.45 8.43428 8.784 9 8.03957 9H3.98957C3.82043 9.00398 3.65223 8.97386 3.49499 8.91144C3.33774 8.84901 3.19468 8.75555 3.07434 8.63665C2.95399 8.51774 2.85882 8.37582 2.79451 8.21934C2.7302 8.06286 2.69805 7.89503 2.7 7.72586V3.86871C2.69742 3.69829 2.72896 3.52907 2.79275 3.37102C2.85655 3.21296 2.95132 3.06927 3.07148 2.94839C3.19164 2.82751 3.33477 2.73189 3.49244 2.66715C3.65011 2.60241 3.81913 2.56987 3.98957 2.57143H8.03957C8.78528 2.57143 9.45 3.16028 9.45 3.86871V7.72586ZM8.03957 0H3.98957C1.75242 0 0 1.73828 0 3.86871V7.72586C0 9.85628 1.75242 11.5714 3.98957 11.5714H8.03957C10.2767 11.5714 12.15 9.85628 12.15 7.72586V3.86871C12.15 1.73828 10.2767 0 8.03957 0Z" fill="#A2A2AC"/>
</svg>
