<svg width="100%" height="100%" viewBox="0 0 27 30" fill="none" xmlns="http://www.w3.org/2000/svg">
<path d="M16.2754 6.81848C16.7015 6.81848 17.0544 7.16756 17.0544 7.59748V8.28072H17.7361C18.1653 8.28072 18.5151 8.62929 18.5151 9.05973C18.5151 9.48965 18.1653 9.83873 17.7361 9.83873H17.0544V10.5209C17.0544 10.9509 16.7015 11.2999 16.2754 11.2999C15.8432 11.2999 15.4964 10.9509 15.4964 10.5209V9.83873H14.8134C14.3828 9.83873 14.0344 9.48965 14.0344 9.05973C14.0344 8.62903 14.383 8.28072 14.8134 8.28072H15.4964V7.59748C15.4962 7.16602 15.8432 6.81848 16.2754 6.81848ZM21.9115 3.34617V28.7956C21.9115 29.2248 21.5586 29.5746 21.1325 29.5746H0.779005C0.350629 29.5746 0 29.2248 0 28.7956V3.34617C0 2.91547 0.350629 2.56716 0.779005 2.56716H5.8917V0.779005C5.8917 0.349085 6.24182 0 6.67071 0H15.2405C15.6666 0 16.0198 0.349085 16.0198 0.779005V2.56536H21.1322C21.5616 2.56691 21.9115 2.91393 21.9115 3.34617ZM7.44971 4.67609H14.4615V1.55981H7.44971V4.67609ZM20.3532 4.12517H16.0198V5.45509C16.0198 5.88578 15.6666 6.2341 15.2405 6.2341H6.67071C6.24156 6.2341 5.8917 5.88553 5.8917 5.45509V4.12517H1.55801V28.0166H20.3532V4.12517ZM17.9187 13.0513H3.99182C3.56035 13.0513 3.21282 13.4004 3.21282 13.8303C3.21282 14.261 3.56061 14.6093 3.99182 14.6093H17.9187C18.3478 14.6093 18.6977 14.2607 18.6977 13.8303C18.6979 13.4004 18.3478 13.0513 17.9187 13.0513ZM17.9187 16.6559H3.99182C3.56035 16.6559 3.21282 17.0029 3.21282 17.4352C3.21282 17.8641 3.56061 18.2139 3.99182 18.2139H17.9187C18.3478 18.2139 18.6977 17.8641 18.6977 17.4352C18.6979 17.0027 18.3478 16.6559 17.9187 16.6559ZM17.9187 20.2593H3.99182C3.56035 20.2593 3.21282 20.6091 3.21282 21.0383C3.21282 21.4674 3.56061 21.8173 3.99182 21.8173H17.9187C18.3478 21.8173 18.6977 21.4674 18.6977 21.0383C18.6979 20.606 18.3478 20.2593 17.9187 20.2593ZM17.9187 23.8626H3.99182C3.56035 23.8626 3.21282 24.2096 3.21282 24.6416C3.21282 25.0708 3.56061 25.4206 3.99182 25.4206H17.9187C18.3478 25.4206 18.6977 25.0708 18.6977 24.6416C18.6979 24.2096 18.3478 23.8626 17.9187 23.8626ZM25.381 11.872C24.4861 11.872 23.762 12.5977 23.762 13.491V25.996C23.762 26.6015 24.109 27.1097 24.602 27.3867V28.7956C24.602 29.2248 24.949 29.5746 25.381 29.5746C25.8101 29.5746 26.16 29.2248 26.16 28.7956V27.3867C26.653 27.1097 27 26.6012 27 25.996V13.491C27 12.5977 26.2727 11.872 25.381 11.872Z" fill="#A2A2AC"/>
</svg>
