<svg width="100%" height="100%" viewBox="0 0 23 22" fill="none" xmlns="http://www.w3.org/2000/svg">
<path d="M22.3041 9.90462L1.72875 0.222115C1.52157 0.124625 1.29098 0.0879074 1.06376 0.116226C0.836541 0.144545 0.622016 0.236739 0.445097 0.382101C0.268179 0.527463 0.136125 0.72003 0.06427 0.93744C-0.00758504 1.15485 -0.0162931 1.38818 0.0391574 1.61035L1.50606 7.47915L10.8957 11L1.50606 14.5208L0.0391574 20.3896C-0.0173364 20.6119 -0.00935513 20.8457 0.0621676 21.0637C0.13369 21.2816 0.265797 21.4747 0.443035 21.6203C0.620273 21.7659 0.835313 21.8581 1.063 21.886C1.29069 21.9139 1.52161 21.8763 1.72875 21.7778L22.3041 12.0953C22.512 11.9975 22.6878 11.8426 22.811 11.6487C22.9341 11.4547 22.9995 11.2297 22.9995 11C22.9995 10.7702 22.9341 10.5452 22.811 10.3512C22.6878 10.1573 22.512 10.0024 22.3041 9.90462Z" fill="white"/>
</svg>
