<svg width="16" height="15" viewBox="0 0 16 15" fill="none" xmlns="http://www.w3.org/2000/svg">
<path fill-rule="evenodd" clip-rule="evenodd" d="M11.7149 5H11.0899V3.75C11.0899 2.025 9.6899 0.625 7.9649 0.625C6.2399 0.625 4.8399 2.025 4.8399 3.75V5H4.2149C3.5274 5 2.9649 5.5625 2.9649 6.25V12.5C2.9649 13.1875 3.5274 13.75 4.2149 13.75H11.7149C12.4024 13.75 12.9649 13.1875 12.9649 12.5V6.25C12.9649 5.5625 12.4024 5 11.7149 5ZM7.9649 10.625C7.2774 10.625 6.7149 10.0625 6.7149 9.375C6.7149 8.6875 7.2774 8.125 7.9649 8.125C8.6524 8.125 9.2149 8.6875 9.2149 9.375C9.2149 10.0625 8.6524 10.625 7.9649 10.625ZM6.0899 5V3.75C6.0899 2.7125 6.9274 1.875 7.9649 1.875C9.0024 1.875 9.8399 2.7125 9.8399 3.75V5H6.0899Z" fill="#A2A2AC"/>
</svg>
