<svg width="32" height="26" viewBox="0 0 32 26" fill="none" xmlns="http://www.w3.org/2000/svg">
<path d="M29.4587 0.0455548V0H29.3062H1.82881H1.67631V0.0455548C0.777332 0.107346 0.106634 0.822581 0 1.69067V1.84347V19.9495C0 20.3006 0.091364 20.5965 0.243858 20.8631C0.594706 21.4809 1.1126 21.793 1.82886 21.793H11.8566V24.3224H9.9517C9.47931 24.3224 9.11354 24.6898 9.11354 25.1612C9.11354 25.6327 9.47931 26 9.9517 26H21.1834C21.6558 26 22.0369 25.6326 22.0369 25.1612C22.0369 24.6898 21.6559 24.3224 21.1834 24.3224H19.2785V21.793H29.3062C30.0228 21.793 30.5452 21.4809 30.8912 20.8631C31.0482 20.5835 31.1503 20.2844 31.1503 19.9495V1.84352V1.69072C31.0436 0.822581 30.3274 0.107346 29.4587 0.0455548ZM29.4587 1.84352V19.9496C29.4587 20.0569 29.4131 20.1024 29.3062 20.1024H1.82881C1.72217 20.1024 1.67631 20.0569 1.67631 19.9496V1.84352V1.69072H29.4586V1.84352H29.4587Z" fill="#A2A2AC"/>
</svg>
