<svg width="9" height="12" viewBox="0 0 9 12" fill="none" xmlns="http://www.w3.org/2000/svg">
<path d="M6.57932 3.5625H2.58175C2.89796 4.15701 3.61131 4.90815 4.58065 5.64415C5.54999 4.90815 6.26311 4.15701 6.57932 3.5625Z" fill="#00C689"/>
<path d="M8.12367 10.2801V9.25721C8.12367 8.093 7.08057 6.961 6.10747 6.15842C7.07761 5.31292 8.12367 4.13254 8.12367 2.97345V2.14355C8.51022 2.07856 8.80503 1.74311 8.80503 1.33812C8.80503 0.886572 8.43885 0.520508 7.98742 0.520508H1.1738C0.722257 0.520508 0.356079 0.886572 0.356079 1.33812C0.356079 1.74311 0.650888 2.07844 1.03744 2.14355V2.97345C1.03744 4.13254 2.08339 5.31303 3.05364 6.15842C2.08031 6.961 1.03744 8.093 1.03744 9.25721V10.2801C0.650888 10.3449 0.356079 10.6805 0.356079 11.0854C0.356079 11.5369 0.722257 11.9031 1.1738 11.9031H7.98742C8.43897 11.9031 8.80514 11.5369 8.80514 11.0854C8.80503 10.6805 8.51022 10.345 8.12367 10.2801ZM7.30594 9.84546L4.58243 7.79967L1.85505 9.84592V9.25721C1.85505 8.02596 3.76118 6.60917 4.38483 6.17856C3.76118 5.71666 1.85505 4.20471 1.85505 2.97345V2.15584H7.30606V2.97345C7.30606 4.20471 5.40016 5.71677 4.77628 6.17856C5.40004 6.60917 7.30606 8.02584 7.30606 9.25721V9.84546H7.30594Z" fill="#00C689"/>
</svg>
