<svg width="11" height="12" viewBox="0 0 11 12" fill="none" xmlns="http://www.w3.org/2000/svg">
<path d="M4.07317 6.89626C4.07317 6.76043 3.963 6.65039 3.82706 6.65039H2.96824C2.83245 6.65039 2.72226 6.76043 2.72226 6.89626V7.75497C2.72226 7.89098 2.83245 8.00106 2.96824 8.00106H3.82706C3.963 8.00106 4.07317 7.89098 4.07317 7.75497V6.89626Z" fill="#F1536E"/>
<path d="M6.21948 6.89626C6.21948 6.76043 6.10928 6.65039 5.97361 6.65039H5.11467C4.97889 6.65039 4.8687 6.76043 4.8687 6.89626V7.75497C4.8687 7.89098 4.97889 8.00106 5.11467 8.00106H5.97361C6.10928 8.00106 6.21948 7.89098 6.21948 7.75497V6.89626Z" fill="#F1536E"/>
<path d="M8.36594 6.89626C8.36594 6.76043 8.25575 6.65039 8.11997 6.65039H7.26114C7.1252 6.65039 7.01503 6.76043 7.01503 6.89626V7.75497C7.01503 7.89098 7.1252 8.00106 7.26114 8.00106H8.11997C8.25575 8.00106 8.36594 7.89098 8.36594 7.75497V6.89626Z" fill="#F1536E"/>
<path d="M4.07317 9.04275C4.07317 8.9067 3.963 8.79675 3.82706 8.79675H2.96824C2.83245 8.79675 2.72226 8.9067 2.72226 9.04275V9.90131C2.72226 10.0372 2.83245 10.1473 2.96824 10.1473H3.82706C3.963 10.1473 4.07317 10.0372 4.07317 9.90131V9.04275Z" fill="#F1536E"/>
<path d="M6.21948 9.04275C6.21948 8.9067 6.10928 8.79675 5.97361 8.79675H5.11467C4.97889 8.79675 4.8687 8.9067 4.8687 9.04275V9.90131C4.8687 10.0372 4.97889 10.1473 5.11467 10.1473H5.97361C6.10928 10.1473 6.21948 10.0372 6.21948 9.90131V9.04275Z" fill="#F1536E"/>
<path d="M8.36594 9.04275C8.36594 8.9067 8.25575 8.79675 8.12008 8.79675H7.26114C7.1252 8.79675 7.01503 8.9067 7.01503 9.04275V9.90131C7.01503 10.0372 7.1252 10.1473 7.26114 10.1473H8.12008C8.25575 10.1473 8.36594 10.0372 8.36594 9.90131V9.04275Z" fill="#F1536E"/>
<path d="M9.90159 2.12153V3.43315C9.90159 4.02599 9.42066 4.50372 8.82791 4.50372H8.1506C7.5578 4.50372 7.07049 4.02599 7.07049 3.43315V2.11682H4.01768V3.43315C4.01768 4.02599 3.53039 4.50372 2.93769 4.50372H2.26024C1.66751 4.50372 1.1866 4.02599 1.1866 3.43315V2.12153C0.668552 2.13715 0.242859 2.56581 0.242859 3.09271V10.7794C0.242859 11.3162 0.677948 11.7571 1.21475 11.7571H9.87343C10.4094 11.7571 10.8453 11.3153 10.8453 10.7794V3.09271C10.8453 2.56581 10.4196 2.13715 9.90159 2.12153ZM9.587 10.3007C9.587 10.5327 9.39891 10.7209 9.16684 10.7209H1.90283C1.67076 10.7209 1.48267 10.5327 1.48267 10.3007V6.33028C1.48267 6.09821 1.67074 5.91001 1.90283 5.91001H9.16682C9.39889 5.91001 9.58698 6.09821 9.58698 6.33028L9.587 10.3007Z" fill="#F1536E"/>
<path d="M2.25786 3.80065H2.92782C3.13117 3.80065 3.29605 3.63601 3.29605 3.43266V1.28243C3.29605 1.07905 3.13117 0.914307 2.92782 0.914307H2.25786C2.05449 0.914307 1.88963 1.07905 1.88963 1.28243V3.43266C1.88963 3.63601 2.05449 3.80065 2.25786 3.80065Z" fill="#F1536E"/>
<path d="M8.14201 3.80065H8.81197C9.01519 3.80065 9.18007 3.63601 9.18007 3.43266V1.28243C9.18009 1.07905 9.01521 0.914307 8.81197 0.914307H8.14201C7.93868 0.914307 7.7738 1.07905 7.7738 1.28243V3.43266C7.7738 3.63601 7.93868 3.80065 8.14201 3.80065Z" fill="#F1536E"/>
</svg>
