<svg width="12" height="12" viewBox="0 0 12 12" fill="none" xmlns="http://www.w3.org/2000/svg">
<g clip-path="url(#clip0)">
<path d="M5.12916 7.91685L4.96375 8.89934C4.9412 9.03366 4.99631 9.16902 5.10627 9.24918C5.21641 9.32917 5.36265 9.33988 5.48298 9.27683L6.36631 8.81573L7.24963 9.27691C7.30189 9.30404 7.35917 9.31768 7.41583 9.31768C7.49003 9.31768 7.56406 9.29445 7.62651 9.24927C7.73656 9.16911 7.79184 9.03375 7.76913 8.89943L7.60388 7.91694L8.31514 7.21924C8.4124 7.12396 8.44704 6.98178 8.40532 6.85238C8.36343 6.72307 8.2513 6.6284 8.11672 6.60853L7.13112 6.46238L6.68721 5.57015C6.627 5.44835 6.50227 5.37122 6.36622 5.37122C6.23043 5.37122 6.10578 5.44835 6.04506 5.57015L5.60158 6.46238L4.61598 6.60844C4.48114 6.62831 4.36953 6.72299 4.32755 6.8523C4.28557 6.98169 4.32012 7.12405 4.41756 7.21916L5.12916 7.91685Z" fill="#3DA5F4"/>
<path d="M10.6022 2.12189H9.47366V1.49589C9.47366 1.20859 9.24078 0.975708 8.95339 0.975708H8.87089C8.58359 0.975708 8.3508 1.20859 8.3508 1.49589V2.12189H4.36891V1.49589C4.36891 1.20859 4.13603 0.975708 3.84881 0.975708H3.76623C3.47893 0.975708 3.24614 1.20859 3.24614 1.49589V2.12189H2.1307C1.54047 2.12189 1.0601 2.60208 1.0601 3.19249V10.6866C1.0601 11.2767 1.54047 11.7572 2.1307 11.7572H10.6023C11.1925 11.7572 11.6729 11.2768 11.6729 10.6866V3.19249C11.6728 2.60208 11.1924 2.12189 10.6022 2.12189ZM10.4625 10.5469H2.27038V4.71322H10.4625V10.5469Z" fill="#3DA5F4"/>
</g>
<defs>
<clipPath id="clip0">
<rect width="10.7814" height="10.7814" fill="white" transform="translate(0.975708 0.975708)"/>
</clipPath>
</defs>
</svg>
